<svg width="277" height="420" viewBox="0 0 277 420" fill="none" xmlns="http://www.w3.org/2000/svg">
	<g id="hombre-pobre" clip-path="url(#clip0_1_2)">
		<g id="Man">
			<path id="Vector" d="M266.127 80.756C258.734 54.015 239.568 44.504 237.173 43.407C237.144 39.693 235.94 34.454 230.416 28.379C223.526 20.799 211.927 12.847 211.927 12.847L215.236 27.014C208.568 24.309 202.172 22.646 197.828 20.502C188.391 15.845 173.043 12.681 173.043 12.681L175.299 19.8C175.299 19.8 163.741 16.373 143.739 19.801C123.727 23.231 116.395 27.313 116.395 27.313L123.37 33.178C123.37 33.178 106.631 35.342 92.656 61.457C78.684 87.572 82.103 106.567 81.662 110.542C81.22 114.518 81.931 145.788 81.931 145.788L168.111 172.49L258.055 165.382C258.055 165.382 265.623 135.033 266.065 131.058C266.507 127.082 274.019 109.304 266.127 80.756Z" fill="#AA967C" />
			<path id="Vector_2" d="M266.127 80.756C258.734 54.015 239.568 44.504 237.173 43.407C237.144 39.693 235.94 34.454 230.416 28.379C223.526 20.799 211.927 12.847 211.927 12.847L215.236 27.014C208.568 24.309 202.172 22.646 197.828 20.502C188.391 15.845 173.043 12.681 173.043 12.681L175.299 19.8C175.299 19.8 163.741 16.373 143.739 19.801C123.727 23.231 116.395 27.313 116.395 27.313L123.37 33.178C123.37 33.178 106.631 35.342 92.656 61.457C78.684 87.572 82.103 106.567 81.662 110.542C81.22 114.518 81.931 145.788 81.931 145.788L168.111 172.49L258.055 165.382C258.055 165.382 265.623 135.033 266.065 131.058C266.507 127.082 274.019 109.304 266.127 80.756Z" stroke="#797979" stroke-width="4" stroke-linecap="round" stroke-linejoin="round" />
			<path id="Vector_3" d="M210.2 260.723C203.206 256.929 174.077 250.606 174.077 250.606H148.338C148.338 250.606 119.207 256.929 112.214 260.723L122.316 302.331H200.097L210.2 260.723Z" fill="white" />
			<path id="Vector_4" d="M210.2 260.723C203.206 256.929 174.077 250.606 174.077 250.606H148.338C148.338 250.606 119.207 256.929 112.214 260.723L122.316 302.331H200.097L210.2 260.723Z" stroke="#797979" stroke-width="4" stroke-linecap="round" stroke-linejoin="round" />
			<path id="Vector_5" d="M173.747 250.605H168.788L167.365 235.573L160.876 231.353L154.386 235.573L152.963 250.605H148.006C144.155 258.106 155.768 261.192 155.768 261.192H165.985C165.985 261.192 177.598 258.106 173.747 250.605Z" fill="#FFEFD9" />
			<path id="Vector_6" d="M173.747 250.605H168.788L167.365 235.573L160.876 231.353L154.386 235.573L152.963 250.605H148.006C144.155 258.106 155.768 261.192 155.768 261.192H165.985C165.985 261.192 177.598 258.106 173.747 250.605Z" stroke="#797979" stroke-width="4" stroke-linecap="round" stroke-linejoin="round" />
			<path id="Vector_7" d="M112.214 260.723L68.157 337.914L74.325 355.745L88.325 345.745L120.992 300.411L112.214 260.723Z" fill="#FFEFD9" />
			<path id="Vector_8" d="M112.214 260.723L68.157 337.914L74.325 355.745L88.325 345.745L120.992 300.411L112.214 260.723Z" stroke="#797979" stroke-width="4" stroke-linecap="round" stroke-linejoin="round" />
			<path id="Vector_9" d="M193.646 257.931C195.146 257.931 255.146 253.081 255.146 253.081L254.84 273.519L194.146 287.749L193.646 257.931Z" fill="#FFEFD9" />
			<path id="Vector_10" d="M193.646 257.931C195.146 257.931 255.146 253.081 255.146 253.081L254.84 273.519L194.146 287.749L193.646 257.931Z" stroke="#797979" stroke-width="4" stroke-linecap="round" stroke-linejoin="round" />
			<g id="Group">
				<path id="Vector_11" d="M117.985 258.434C117.985 258.434 115.782 258.83 112.214 260.722C108.018 262.947 94.277 284.218 92.782 286.58L118.996 306.582L125.934 300.165" fill="white" />
				<path id="Vector_12" d="M117.985 258.434C117.985 258.434 115.782 258.83 112.214 260.722C108.018 262.947 94.277 284.218 92.782 286.58L118.996 306.582L125.934 300.165" stroke="#797979" stroke-width="4" stroke-linecap="round" stroke-linejoin="round" />
			</g>
			<g id="Group_2">
				<path id="Vector_13" d="M244.165 254.053L239.395 192.58L254.478 188.413C254.478 188.413 266.844 236.352 271.145 259.581C272.466 266.712 267.991 269.672 257.155 272.866C245.858 276.198 240.956 276.773 240.956 276.773" fill="#FFEFD9" />
				<path id="Vector_14" d="M244.165 254.053L239.395 192.58L254.478 188.413C254.478 188.413 266.844 236.352 271.145 259.581C272.466 266.712 267.991 269.672 257.155 272.866C245.858 276.198 240.956 276.773 240.956 276.773" stroke="#797979" stroke-width="4" stroke-linecap="round" stroke-linejoin="round" />
			</g>
			<g id="Group_3">
				<path id="Vector_15" d="M179.258 252.514L199.48 252.081C199.48 252.081 212.531 252.671 217.529 254.236L205.305 297.331L193.306 300.166" fill="white" />
				<path id="Vector_16" d="M179.258 252.514L199.48 252.081C199.48 252.081 212.531 252.671 217.529 254.236L205.305 297.331L193.306 300.166" stroke="#797979" stroke-width="4" stroke-linecap="round" stroke-linejoin="round" />
			</g>
			<g id="Group_4">
				<path id="Vector_17" d="M210.149 414.581H111.602V404.328H210.149V414.581Z" fill="#808080" />
				<path id="Vector_18" d="M210.149 414.581H111.602V404.328H210.149V414.581Z" stroke="#797979" stroke-width="4" stroke-linecap="round" stroke-linejoin="round" />
			</g>
			<g id="Group_5">
				<path id="Vector_19" d="M132.81 415.562H126.895V401.312H132.81V415.562Z" fill="#CFCFCF" />
				<path id="Vector_20" d="M132.81 415.562H126.895V401.312H132.81V415.562Z" stroke="#797979" stroke-width="4" stroke-linecap="round" stroke-linejoin="round" />
			</g>
			<g id="Group_6">
				<path id="Vector_21" d="M188.941 415.562H194.857V401.312H188.941V415.562Z" fill="#CFCFCF" />
				<path id="Vector_22" d="M188.941 415.562H194.857V401.312H188.941V415.562Z" stroke="#797979" stroke-width="4" stroke-linecap="round" stroke-linejoin="round" />
			</g>
			<g id="Group_7">
				<path id="Vector_23" d="M122.47 297.331C122.47 297.331 109.085 390.72 108.855 394.681C108.571 399.579 110.047 402.341 110.958 403.561L110.909 404.328H210.843L210.794 403.561C211.707 402.341 213.183 399.579 212.898 394.681C212.667 390.72 199.272 297.331 199.272 297.331" fill="white" />
				<path id="Vector_24" d="M122.47 297.331C122.47 297.331 109.085 390.72 108.855 394.681C108.571 399.579 110.047 402.341 110.958 403.561L110.909 404.328H210.843L210.794 403.561C211.707 402.341 213.183 399.579 212.898 394.681C212.667 390.72 199.272 297.331 199.272 297.331" stroke="#797979" stroke-width="4" stroke-linecap="round" stroke-linejoin="round" />
			</g>
			<path id="Vector_25" d="M169.085 248.62C169.085 248.62 167.163 256.766 160.876 262.222C160.876 262.222 166.64 259.568 168.735 261.476C170.831 263.385 179.215 268.633 179.215 268.633L175.022 251.927L169.085 248.62Z" fill="white" />
			<path id="Vector_26" d="M169.085 248.62C169.085 248.62 167.163 256.766 160.876 262.222C160.876 262.222 166.64 259.568 168.735 261.476C170.831 263.385 179.215 268.633 179.215 268.633L175.022 251.927L169.085 248.62Z" stroke="#797979" stroke-width="4" stroke-linecap="round" stroke-linejoin="round" />
			<path id="Vector_27" d="M152.667 248.62C152.667 248.62 154.59 256.766 160.876 262.222C160.876 262.222 155.112 259.568 153.017 261.476C150.922 263.385 142.537 268.633 142.537 268.633L146.729 251.927L152.667 248.62Z" fill="white" />
			<path id="Vector_28" d="M152.667 248.62C152.667 248.62 154.59 256.766 160.876 262.222C160.876 262.222 155.112 259.568 153.017 261.476C150.922 263.385 142.537 268.633 142.537 268.633L146.729 251.927L152.667 248.62Z" stroke="#797979" stroke-width="4" stroke-linecap="round" stroke-linejoin="round" />
			<path id="Vector_29" d="M165.727 271.324L160.71 270.965L155.691 271.324L148.148 403.331L160.71 418.049L173.271 403.331L165.727 271.324Z" fill="#C8808D" />
			<path id="Vector_30" d="M165.727 271.324L160.71 270.965L155.691 271.324L148.148 403.331L160.71 418.049L173.271 403.331L165.727 271.324Z" stroke="#797979" stroke-width="4" stroke-linecap="round" stroke-linejoin="round" />
			<path id="Vector_31" d="M155.095 261.192L155.736 270.692C155.736 270.692 158.329 272.567 160.71 272.567C163.09 272.567 165.685 270.692 165.685 270.692L166.323 261.192H155.095Z" fill="#C8808D" />
			<path id="Vector_32" d="M155.095 261.192L155.736 270.692C155.736 270.692 158.329 272.567 160.71 272.567C163.09 272.567 165.685 270.692 165.685 270.692L166.323 261.192H155.095Z" stroke="#797979" stroke-width="4" stroke-linecap="round" stroke-linejoin="round" />
			<path id="Vector_33" d="M81.71 153.367C81.71 153.367 85.572 152.111 89.061 152.548" stroke="#797979" stroke-width="4" stroke-linecap="round" stroke-linejoin="round" />
			<g id="Group_8">
				<path id="Vector_34" d="M101.483 134.555C101.483 134.555 74.223 125.468 71.222 150.736C69.458 165.598 78.275 173.488 98.021 176.12" fill="#FFEFD9" />
				<path id="Vector_35" d="M101.483 134.555C101.483 134.555 74.223 125.468 71.222 150.736C69.458 165.598 78.275 173.488 98.021 176.12" stroke="#797979" stroke-width="4" stroke-linecap="round" stroke-linejoin="round" />
			</g>
			<g id="Group_9">
				<path id="Vector_36" d="M242.711 151.327C242.711 151.327 271.342 148.879 268.342 174.144C266.577 189.007 256.153 194.612 236.341 192.548" fill="#FFEFD9" />
				<path id="Vector_37" d="M242.711 151.327C242.711 151.327 271.342 148.879 268.342 174.144C266.577 189.007 256.153 194.612 236.341 192.548" stroke="#797979" stroke-width="4" stroke-linecap="round" stroke-linejoin="round" />
			</g>
			<path id="Vector_38" d="M257.529 174.247C257.529 174.247 254.066 172.121 250.573 171.727" stroke="#797979" stroke-width="4" stroke-linecap="round" stroke-linejoin="round" />
			<path id="Vector_39" d="M257.602 152.899C254.074 204.088 220.956 252.705 159.924 245.457C99.178 238.242 78.279 183.707 86.518 133.314C94.547 84.225 99.853 35.458 183.68 45.413C267.506 55.367 261.007 103.51 257.602 152.899Z" fill="#FFEFD9" />
			<path id="Vector_40" d="M257.602 152.899C254.074 204.088 220.956 252.705 159.924 245.457C99.178 238.242 78.279 183.707 86.518 133.314C94.547 84.225 99.853 35.458 183.68 45.413C267.506 55.367 261.007 103.51 257.602 152.899Z" stroke="#797979" stroke-width="4" stroke-linecap="round" stroke-linejoin="round" />
			<path id="Vector_41" d="M225.754 55.135C225.754 55.135 259.734 100.642 258.18 155.305L261.012 145.076C261.012 145.076 274.563 68.614 245.631 57.346C216.699 46.078 225.754 55.135 225.754 55.135Z" fill="#AA967C" />
			<path id="Vector_42" d="M228.23 58.712C236.029 70.453 259.477 109.691 258.18 155.305" stroke="#797979" stroke-width="4" stroke-linecap="round" stroke-linejoin="round" />
			<path id="Vector_43" d="M230.27 60.5C200.915 65.115 177.044 77.403 165.419 95.028C163.202 83.378 166.421 73.689 172.883 60.823C153.003 72.195 136.236 84.252 129.387 96.067C122.947 83.108 131.93 70.186 136.827 63.855C123.576 71.172 109.537 89.88 103.898 100.942C101.992 91.045 102.59 78.126 106.476 72.888C97.659 82.808 90.937 111.574 90.937 111.574C90.937 111.574 85.03 95.321 90.332 79.31C90.332 79.31 93.262 48.444 123.136 37.682C138.074 32.3 161.758 29.674 183.215 30.689C204.669 31.703 223.898 36.357 229.923 45.537C241.971 63.895 230.27 60.5 230.27 60.5Z" fill="#AA967C" />
			<path id="Vector_44" d="M230.271 60.5C200.915 65.115 177.044 77.403 165.419 95.028C163.202 83.378 166.422 73.689 172.883 60.823C153.004 72.195 136.236 84.252 129.387 96.067C122.947 83.108 131.93 70.186 136.827 63.855C123.577 71.172 109.538 89.88 103.899 100.942C101.992 91.045 102.591 78.126 106.476 72.888C97.659 82.808 90.937 111.574 90.937 111.574C90.937 111.574 85.03 95.321 90.333 79.31" stroke="#797979" stroke-width="4" stroke-linecap="round" stroke-linejoin="round" />
			<path id="Vector_45" d="M215.226 146.789C214.219 154.349 210.887 160.142 207.784 159.729C204.681 159.315 202.982 152.851 203.989 145.291C204.997 137.731 208.328 131.938 211.43 132.351C214.534 132.765 216.233 139.228 215.226 146.789Z" fill="#797979" />
			<path id="Vector_46" d="M132.134 135.719C131.127 143.28 132.826 149.742 135.93 150.157C139.032 150.57 142.364 144.777 143.372 137.216C144.379 129.657 142.68 123.193 139.577 122.78C136.474 122.366 133.141 128.159 132.134 135.719Z" fill="#797979" />
			<path id="Vector_47" d="M163.908 184.936C163.908 184.936 161.794 190.707 167.043 191.072" stroke="#797979" stroke-width="4" stroke-linecap="round" stroke-linejoin="round" />
			<path id="Vector_48" d="M130.562 102.628C135.187 103.244 146.023 102.67 150.34 100.555" stroke="#797979" stroke-width="4" stroke-linecap="round" stroke-linejoin="round" />
			<path id="Vector_49" d="M225.406 115.262C220.781 114.646 210.471 111.256 206.859 108.083" stroke="#797979" stroke-width="4" stroke-linecap="round" stroke-linejoin="round" />
		</g>
		<g id="Boronas">
			<path id="borona04" d="M55.321 387.016L56.651 389.871L54.904 389.715L55.321 387.016Z" stroke="#797979" stroke-width="4" stroke-linecap="round" stroke-linejoin="round" />
			<path id="borona03" d="M62.864 365.43V368.741" stroke="#797979" stroke-width="4" stroke-linecap="round" stroke-linejoin="round" />
			<path id="borona02" d="M81.396 371.944L81.624 372.606" stroke="#797979" stroke-width="4" stroke-linecap="round" stroke-linejoin="round" />
			<path id="borona01" d="M72.987 403.147L73.534 405.501" stroke="#797979" stroke-width="4" stroke-linecap="round" stroke-linejoin="round" />
		</g>
		<g id="Billetera">
			<path id="Vector_50" d="M10.946 364.086L62.498 348.482L120.196 342.316L60.272 331.664L10.946 364.086Z" fill="#AF9C7F" />
			<path id="Vector_51" d="M10.946 364.086L62.498 348.482L120.196 342.316L60.272 331.664L10.946 364.086Z" stroke="#797979" stroke-width="4" stroke-linecap="round" stroke-linejoin="round" />
			<path id="Vector_52" d="M10.946 364.086C10.946 364.086 54.483 342.308 60.284 341.509C66.09 340.711 120.196 342.316 120.196 342.316L115.573 294.513C115.573 294.513 60.886 293.14 54.4 294.563C47.913 295.992 6.323 314.041 6.323 314.041L10.946 364.086Z" fill="#AF9C7F" />
			<path id="Vector_53" d="M10.946 364.086C10.946 364.086 54.483 342.308 60.284 341.509C66.09 340.711 120.196 342.316 120.196 342.316L115.573 294.513C115.573 294.513 60.886 293.14 54.4 294.563C47.913 295.992 6.323 314.041 6.323 314.041L10.946 364.086Z" stroke="#797979" stroke-width="4" stroke-linecap="round" stroke-linejoin="round" />
			<path id="Vector_54" d="M55.256 302.077L59.976 333.845" stroke="#797979" stroke-width="4" stroke-linecap="round" stroke-linejoin="round" />
			<path id="Vector_55" d="M61.282 348.849L70.35 354.851L102.784 350.745L109.292 343.482L61.282 348.849Z" fill="#AF9C7F" />
			<path id="Vector_56" d="M61.282 348.849L70.35 354.851L102.784 350.745L109.292 343.482L61.282 348.849Z" stroke="#797979" stroke-width="4" stroke-linecap="round" stroke-linejoin="round" />
		</g>
		<g id="Agita">
			<path id="Vector_57" d="M21.2 282.192C19.407 272.163 27.867 256.859 41.867 256.859" stroke="#797979" stroke-width="4" stroke-linecap="round" stroke-linejoin="round" />
			<path id="Vector_58" d="M13.2 271.525C11.073 261.496 21.073 249.496 30.534 250.192" stroke="#797979" stroke-width="4" stroke-linecap="round" stroke-linejoin="round" />
		</g>
		<g id="Mano">
			<path id="Vector_59" d="M30.9806 282.62C35.1286 274.749 61.6466 260.663 71.9916 272.638C82.3436 284.611 84.0676 300.953 67.2286 306.996C50.3956 313.036 33.5746 317.284 30.4966 304.001C27.3456 290.436 26.8286 290.498 30.9806 282.62Z" fill="#FCEDD7" />
			<path id="Vector_60" d="M32.567 281.579C36.715 273.708 63.233 259.622 73.578 271.597C83.93 283.57 85.654 299.912 68.815 305.955C51.982 311.995 35.161 316.243 32.083 302.96C28.932 289.395 28.415 289.457 32.567 281.579Z" stroke="#797979" stroke-width="4" stroke-linecap="round" stroke-linejoin="round" />
		</g>
		<g id="Boca">
			<path id="Vector_61" d="M142.348 218.131C142.348 218.131 152.012 207.985 164.568 209.657" stroke="#797979" stroke-width="4" stroke-linecap="round" stroke-linejoin="round" />
			<path id="Vector_62" d="M183.794 223.652C183.794 223.652 177.123 211.33 164.567 209.657" stroke="#797979" stroke-width="4" stroke-linecap="round" stroke-linejoin="round" />
		</g>
	</g>
	<defs>
		<clipPath id="clip0_1_2">
			<rect width="276.5" height="419.953" fill="white" />
		</clipPath>
	</defs>
</svg>
